<svg xmlns="http://www.w3.org/2000/svg" xmlns:xlink="http://www.w3.org/1999/xlink" xmlns:lucid="lucid" width="2636.76" height="2057.35"><g transform="translate(0 0)" lucid:page-tab-id="iRuz6dOC4DPX"><path d="M0 0h2636.76v2057.35H0z" fill="#fff"/><path d="M180.37 88c0-4.42 3.58-8 8-8h424.78c4.4 0 8 3.58 8 8v26.15c0 4.4-3.6 8-8 8H188.37c-4.42 0-8-3.6-8-8z" stroke="#000" stroke-opacity="0" stroke-width="2" fill="#fff" fill-opacity="0"/><use xlink:href="#a" transform="matrix(1,0,0,1,184.37114512024624,84) translate(63.53283950617285 23.657777777777778)"/><path d="M226.72 120.77h353.62M226.74 120.77h-1.02M580.3 120.77h1.04" stroke="#b2b2b2" stroke-width="2" fill="none"/><path d="M180 129.07c0-4.4 3.58-8 8-8h425.27c4.42 0 8 3.6 8 8v4c0 4.42-3.58 8-8 8H188c-4.42 0-8-3.58-8-8z" stroke="#000" stroke-opacity="0" stroke-width="2" fill="#fff" fill-opacity="0"/><use xlink:href="#b" transform="matrix(1,0,0,1,184.00000000000006,125.07333333321691) translate(82.11221193415642 14.917037037037037)"/><use xlink:href="#c" transform="matrix(1,0,0,1,184.00000000000006,125.07333333321691) translate(94.85912551440333 14.917037037037037)"/><use xlink:href="#d" transform="matrix(1,0,0,1,184.00000000000006,125.07333333321691) translate(161.05809670781895 14.917037037037037)"/><use xlink:href="#e" transform="matrix(1,0,0,1,184.00000000000006,125.07333333321691) translate(220.4162242798354 14.917037037037037)"/><use xlink:href="#f" transform="matrix(1,0,0,1,184.00000000000006,125.07333333321691) translate(232.8657098765432 14.917037037037037)"/><use xlink:href="#g" transform="matrix(1,0,0,1,184.00000000000006,125.07333333321691) translate(307.52013374485597 14.917037037037037)"/><use xlink:href="#h" transform="matrix(1,0,0,1,184.00000000000006,125.07333333321691) translate(324.51601851851854 14.917037037037037)"/><path d="M430 482c0-1.1.9-2 2-2h626c1.1 0 2 .9 2 2v1196c0 1.1-.9 2-2 2H432c-1.1 0-2-.9-2-2z" fill="#e3f2fd"/><use xlink:href="#i" transform="matrix(1,0,0,1,446.0000000000001,496) translate(0 16.69921875)"/><use xlink:href="#j" transform="matrix(1,0,0,1,446.0000000000001,496) translate(0 35.525173611111114)"/><path d="M458.63 562c0-1.1.9-2 2-2H1038c1.1 0 2 .9 2 2v1076c0 1.1-.9 2-2 2H460.63c-1.1 0-2-.9-2-2z" fill="#dff2ea"/><path d="M503.35 1122c0-1.1.9-2 2-2H1018c1.1 0 2 .9 2 2v216c0 1.1-.9 2-2 2H505.35c-1.1 0-2-.9-2-2z" fill="#ede7f6"/><use xlink:href="#k" transform="matrix(1,0,0,1,519.3549457876625,1135.9999999999995) translate(0 16.69921875)"/><use xlink:href="#l" transform="matrix(1,0,0,1,519.3549457876625,1135.9999999999995) translate(0 35.525173611111114)"/><path d="M791.46 1268.12l-16.12-27.7c-1.25-2.2-3.44-3.46-6.02-3.53h-32.08c-2.58.06-4.77 1.3-6.02 3.53l-16.12 27.62c-1.25 2.15-1.25 4.66 0 6.88l16.12 27.82c1.25 2.3 3.36 3.62 6.02 3.7h32.08c2.58-.08 4.77-1.4 6.02-3.7l16.12-27.6c1.25-2.3 1.25-4.8 0-7.03z" stroke="#000" stroke-opacity="0" fill="#4285f4"/><path d="M786.82 1283.02l-26.44-26.18-1.9 4.07-4.1-4.06-1.9 4.07-4.08-4.06-1.02 4.9-3.64.6-.73 3.18-4.7 1.14 4.23 4.16-4.17 1.8 4.17 4.1-4.22 1.84 28.2 27.86h2.86c2.57-.1 4.75-1.4 6-3.67z" stroke="#000" stroke-opacity="0" fill-opacity=".07"/><path d="M756.84 1267.48h-6.97c-.4 0-.74.33-.74.73v6.9c0 .42.33.75.74.75h6.97c.4-.02.7-.34.7-.74v-6.9c0-.4-.32-.72-.73-.72" stroke="#000" stroke-opacity="0" fill="#fff"/><path d="M767.88 1266.9c.36 0 .67-.26.67-.65v-1.05c0-.36-.3-.66-.67-.66h-3.4v-3.16c0-.42-.34-.75-.73-.75h-3.2v-3.33c0-.37-.3-.67-.66-.67h-1.1c-.37 0-.64.3-.64.67v3.36h-3.6v-3.36c-.02-.37-.32-.67-.68-.67h-1.07c-.35 0-.66.3-.66.67v3.36h-3.58v-3.36c0-.37-.3-.67-.67-.67h-1.07c-.4 0-.67.3-.67.67v3.36h-3.2c-.38 0-.72.3-.72.72v3.13h-3.4c-.36 0-.67.3-.67.67v1.08c0 .36.3.66.67.66h3.4v3.53h-3.4c-.36 0-.67.3-.67.66v1.1c0 .36.3.67.67.67h3.4v3.54h-3.4c-.36 0-.67.3-.67.67v1.1c0 .35.3.62.67.62h3.4v3.14c0 .4.3.72.73.72h3.2v3.37c0 .36.26.66.66.66h1.06c.36 0 .66-.3.66-.67v-3.37h3.58v3.37c0 .36.3.66.67.66h1.08c.36 0 .66-.3.66-.67v-3.37h3.62v3.37c0 .36.3.66.67.66h1.1c.36 0 .66-.3.66-.67v-3.37h3.18c.4-.03.7-.33.7-.72v-3.15h3.4c.36 0 .67-.3.67-.67v-1.06c0-.4-.3-.66-.67-.66h-3.4v-3.53h3.4c.36 0 .67-.3.67-.67v-1.08-.03c0-.37-.3-.67-.67-.67h-3.4v-3.52h3.4zm-5.9 13.33h-17.25v-17.1H762z" stroke="#000" stroke-opacity="0" fill="#fff"/><use xlink:href="#m" transform="matrix(1,0,0,1,714.1609976380907,1311.4396438427316) translate(10.182098765432098 13.11111111111111)"/><path d="M800.9 377.18c6.13 2.8 10.1 9.3 10.1 16.75 0 8.5-5.3 15.8-12.6 17.68l-2.4.6h-86.77c-10.08 0-18.24-9.18-18.24-20.22 0-11.05 8.15-20.22 18.23-20.22.84 0 1.32 0 2.16.22 3-5.34 8.15-8.37 13.9-8.37 1.57 0 3 .22 4.57.73v-.72c0-13.13 9.48-23.6 21.36-23.6 8.16 0 15.72 5.5 19.2 13.72 3-1.95 6.48-3.04 10.08-3.04 11.4 0 20.65 10.26 20.65 22.82.12 1.15 0 2.3-.24 3.68z" stroke="#000" stroke-opacity="0" fill="#4285f4"/><path d="M503.35 862c0-1.1.9-2 2-2H1018c1.1 0 2 .9 2 2v216c0 1.1-.9 2-2 2H505.35c-1.1 0-2-.9-2-2z" fill="#ede7f6"/><use xlink:href="#n" transform="matrix(1,0,0,1,519.3549457876625,876) translate(0 16.69921875)"/><use xlink:href="#l" transform="matrix(1,0,0,1,519.3549457876625,876) translate(0 35.525173611111114)"/><path d="M635.67 998.12l-16-27.48c-1.24-2.2-3.4-3.45-5.98-3.52h-31.85c-2.56.07-4.74 1.3-5.98 3.52l-16 27.4c-1.24 2.15-1.24 4.63 0 6.84l16 27.62c1.24 2.28 3.34 3.6 5.98 3.66h31.84c2.56-.07 4.73-1.38 5.97-3.66l16-27.4c1.24-2.3 1.24-4.77 0-6.98z" stroke="#000" stroke-opacity="0" fill="#4285f4"/><path d="M631.06 1012.9l-26.24-25.98-1.88 4.04-4.1-4.04-1.87 4.04-4.04-4.04-1.02 4.88-3.6.6-.72 3.14-4.67 1.13 4.2 4.13-4.14 1.77 4.14 4.1-4.2 1.8 28 27.67h2.83c2.55-.1 4.72-1.38 5.97-3.64z" stroke="#000" stroke-opacity="0" fill-opacity=".07"/><path d="M601.3 997.5h-6.9c-.42 0-.75.3-.75.7v6.86c0 .4.33.73.74.73h6.9c.4-.02.7-.35.7-.74v-6.85c0-.4-.3-.7-.72-.7" stroke="#000" stroke-opacity="0" fill="#fff"/><path d="M612.26 996.92c.36 0 .67-.26.67-.65v-1.05c0-.36-.3-.65-.67-.65h-3.37v-3.14c0-.4-.35-.74-.74-.74H605v-3.32c0-.36-.3-.66-.67-.66h-1.08c-.36 0-.64.3-.64.66v3.34h-3.54v-3.34c-.03-.36-.33-.66-.7-.66h-1.05c-.35 0-.66.3-.66.66v3.34h-3.55v-3.34c0-.36-.3-.66-.68-.66h-1.05c-.4 0-.66.3-.66.66v3.34h-3.16c-.4 0-.72.3-.72.7v3.12h-3.38c-.36 0-.66.3-.66.65v1.07c0 .36.3.65.66.65h3.38v3.5h-3.38c-.36 0-.66.3-.66.65v1.1c0 .36.3.66.66.66h3.38v3.52h-3.38c-.36 0-.66.3-.66.66v1.08c0 .36.3.63.66.63h3.38v3.14c0 .4.3.72.72.72h3.17v3.34c0 .36.28.66.67.66h1.05c.37 0 .67-.3.67-.66v-3.34h3.54v3.34c0 .36.3.66.67.66h1.06c.37 0 .67-.3.67-.66v-3.34h3.58v3.34c0 .36.32.66.68.66h1.08c.36 0 .67-.3.67-.66v-3.34h3.16c.38-.03.7-.33.7-.72v-3.13h3.36c.36 0 .67-.3.67-.65V1007c0-.38-.3-.65-.67-.65h-3.37v-3.52h3.36c.36 0 .67-.3.67-.66v-1.07-.03c0-.36-.3-.66-.67-.66h-3.37v-3.48h3.36zm-5.85 13.22h-17.1v-16.98h17.1z" stroke="#000" stroke-opacity="0" fill="#fff"/><use xlink:href="#o" transform="matrix(1,0,0,1,558.9417964725435,1041.1572458636754) translate(12.253086419753085 13.11111111111111)"/><path d="M503.35 602c0-1.1.9-2 2-2H1018c1.1 0 2 .9 2 2v216c0 1.1-.9 2-2 2H505.35c-1.1 0-2-.9-2-2z" fill="#ede7f6"/><use xlink:href="#p" transform="matrix(1,0,0,1,519.3549457876625,616) translate(0 16.69921875)"/><use xlink:href="#q" transform="matrix(1,0,0,1,519.3549457876625,616) translate(0 35.525173611111114)"/><path d="M636.73 744.97l-16-27.48c-1.24-2.22-3.42-3.46-5.98-3.53H582.9c-2.55.07-4.73 1.3-5.97 3.52l-16 27.4c-1.24 2.14-1.24 4.62 0 6.83l16 27.62c1.24 2.28 3.34 3.6 5.98 3.66h31.85c2.56-.06 4.74-1.37 5.98-3.65l16-27.4c1.24-2.3 1.24-4.77 0-6.98z" stroke="#000" stroke-opacity="0" fill="#4285f4"/><path d="M632.12 759.76l-26.24-26-1.88 4.05-4.1-4.03-1.87 4.04-4.05-4.03-1 4.88-3.62.6-.72 3.14-4.67 1.12 4.2 4.13-4.15 1.77 4.14 4.1-4.2 1.8 28 27.67h2.83c2.54-.1 4.7-1.4 5.96-3.65z" stroke="#000" stroke-opacity="0" fill-opacity=".07"/><path d="M602.36 744.34h-6.9c-.42 0-.75.32-.75.72v6.85c0 .4.34.74.75.74h6.9c.4 0 .72-.34.72-.73v-6.84c0-.4-.33-.72-.73-.72" stroke="#000" stroke-opacity="0" fill="#fff"/><path d="M613.32 743.77c.36 0 .66-.26.66-.65v-1.05c0-.35-.3-.65-.66-.65h-3.38v-3.14c0-.4-.33-.74-.72-.74h-3.17v-3.3c0-.37-.3-.67-.66-.67h-1.1c-.36 0-.63.3-.63.66v3.34h-3.55v-3.34c-.04-.36-.34-.66-.7-.66h-1.05c-.37 0-.67.3-.67.66v3.34h-3.55v-3.34c0-.36-.3-.66-.67-.66h-1.05c-.4 0-.67.3-.67.66v3.34h-3.16c-.4 0-.73.3-.73.7v3.12h-3.37c-.36 0-.67.3-.67.64v1.08c0 .36.3.65.67.65h3.37v3.5h-3.37c-.36 0-.67.3-.67.65v1.1c0 .36.3.66.67.66h3.37v3.52h-3.37c-.36 0-.67.3-.67.66v1.07c0 .36.3.63.67.63h3.37v3.13c0 .38.3.7.73.7h3.16v3.35c0 .36.27.66.67.66h1.05c.36 0 .67-.3.67-.65v-3.34h3.55v3.35c0 .36.3.66.67.66h1.05c.36 0 .66-.3.66-.65v-3.34h3.6v3.35c0 .36.3.66.66.66h1.08c.36 0 .66-.3.66-.65v-3.34h3.17c.4-.02.7-.32.7-.7v-3.14h3.37c.36 0 .66-.3.66-.66v-1.04c0-.4-.3-.66-.66-.66h-3.38v-3.52h3.38c.36 0 .66-.3.66-.65v-1.08-.03c0-.36-.3-.66-.66-.66h-3.38v-3.5h3.38zM607.47 757h-17.12v-17h17.12z" stroke="#000" stroke-opacity="0" fill="#fff"/><use xlink:href="#r" transform="matrix(1,0,0,1,560,788.0076761974757) translate(-10.583333333333343 13.11111111111111)"/><path d="M503.35 1382c0-1.1.9-2 2-2H1018c1.1 0 2 .9 2 2v209.65c0 1.1-.9 2-2 2H505.35c-1.1 0-2-.9-2-2z" fill="#ede7f6"/><use xlink:href="#s" transform="matrix(1,0,0,1,519.3549457876625,1395.9999999999995) translate(0 16.69921875)"/><use xlink:href="#l" transform="matrix(1,0,0,1,519.3549457876625,1395.9999999999995) translate(0 35.525173611111114)"/><path d="M788.7 1490.97l-16.1-27.68c-1.26-2.24-3.45-3.5-6.04-3.56H734.5c-2.6.07-4.8 1.32-6.04 3.55l-16.1 27.6c-1.27 2.16-1.27 4.66 0 6.9l16.1 27.8c1.25 2.3 3.37 3.63 6.03 3.7h32.06c2.6-.07 4.78-1.4 6.03-3.7l16.1-27.6c1.26-2.3 1.26-4.8 0-7.03z" stroke="#000" stroke-opacity="0" fill="#4285f4"/><path d="M784.07 1505.88l-26.44-26.18-1.9 4.06-4.12-4.06-1.88 4.06-4.08-4.06-1.02 4.9-3.63.6-.74 3.17-4.7 1.14 4.2 4.18-4.16 1.78 4.17 4.12-4.22 1.83 28.2 27.88h2.85c2.57-.1 4.76-1.4 6.02-3.67z" stroke="#000" stroke-opacity="0" fill-opacity=".07"/><path d="M754.08 1490.34h-6.96c-.42 0-.74.32-.74.73v6.9c0 .4.32.74.74.74h6.96c.4 0 .72-.34.72-.73v-6.9c0-.4-.33-.73-.74-.73" stroke="#000" stroke-opacity="0" fill="#fff"/><path d="M765.12 1489.77c.37 0 .67-.27.67-.66v-1.04c0-.36-.3-.66-.68-.66h-3.4v-3.16c0-.42-.33-.75-.73-.75h-3.2v-3.35c0-.36-.3-.66-.66-.66h-1.1c-.36 0-.64.3-.64.65v3.37h-3.58v-3.37c-.03-.36-.33-.66-.7-.66h-1.06c-.37 0-.67.3-.67.65v3.37h-3.6v-3.37c0-.36-.3-.66-.66-.66h-1.07c-.4 0-.66.3-.66.65v3.37h-3.18c-.4 0-.73.3-.73.72v3.13h-3.4c-.38 0-.68.3-.68.66v1.08c0 .37.3.67.67.67h3.4v3.52h-3.4c-.38 0-.68.3-.68.65v1.1c0 .37.3.67.67.67h3.4v3.55h-3.4c-.38 0-.68.3-.68.66v1.08c0 .37.3.64.67.64h3.4v3.16c0 .4.3.72.72.72h3.2v3.37c0 .35.26.65.65.65h1.07c.36 0 .67-.3.67-.66v-3.38h3.6v3.37c0 .35.3.65.66.65h1.06c.37 0 .67-.3.67-.66v-3.38h3.6v3.37c0 .35.3.65.67.65h1.1c.36 0 .66-.3.66-.66v-3.38h3.2c.4-.03.7-.33.7-.72v-3.16h3.4c.36 0 .66-.3.66-.66v-1.05c0-.4-.3-.66-.68-.66h-3.4v-3.55h3.4c.37 0 .67-.3.67-.66v-1.08-.03c0-.36-.3-.66-.68-.66h-3.4v-3.53h3.4zm-5.9 13.32H742v-17.12h17.25z" stroke="#000" stroke-opacity="0" fill="#fff"/><use xlink:href="#t" transform="matrix(1,0,0,1,711.4064056299641,1534.2963132175864) translate(16.64197530864197 13.11111111111111)"/><path d="M749.43 1459.24v-.9m0-3.68v-1.83m0-3.67v-1.83m0-3.67v-1.83m0-3.67v-1.83m0-3.67v-.92l-.14-1.03m-1.08-4l-.4-.95-.63-.83m-2.94-2.93l-.84-.66-.95-.4m-4-1.06l-1.04-.14h-.95m-3.8 0h-1.9m-3.78 0h-1.9m-3.8 0h-1.9m-3.8 0h-1.88m-3.8 0h-1.9m-3.8 0h-1.88m-3.8 0h-1.9m-3.8 0h-1.9m-3.78 0h-.95l-1.02-.13m-4-1.06l-.96-.4-.84-.64m-2.93-2.93l-.64-.84-.38-.95m-1.07-4l-.14-1.04v-.98m0-3.94v-1.97m0-3.94v-1.96m0-3.94v-1.97m0-3.94v-1.98m0-3.93v-1.98m0-3.94v-1.97m0-3.93v-1.97m0-3.94v-1.97m0-3.95v-1.97m0-3.94v-1.97m0-3.94v-1.97m0-3.93v-1.97m0-3.94v-1.97m0-3.94v-1.96m0-3.94v-1.97m0-3.94v-1.98m0-3.94v-1.97m0-3.93v-1.97m0-3.94v-1.96m0-3.94v-1.97m0-3.95v-1l.15-1.02m1.07-4l.4-.96.63-.84m2.93-2.92l.84-.64.95-.4m4-1.06l1.04-.14h.98m3.87 0H693m3.86 0h.97" stroke="#333" fill="none"/><path d="M749.93 1459.74h-1v-.5h1z" fill="#333"/><path d="M712.6 1271.66l-14.27 4.64v-9.27z" stroke="#333" fill="#333"/><path d="M792.34 1271.66" stroke="#333" fill="none"/><path fill="#333"/><path fill="#333"/><path d="M753.2 1236.4v-.93m0-3.67v-1.83m0-3.67v-1.83m0-3.67v-1.83m0-3.67v-1.83m0-3.67v-.9l-.13-1.05m-1.07-4l-.4-.95-.64-.84m-2.93-2.93l-.83-.64-.96-.4m-4-1.08l-1.04-.13h-1m-4 0h-2m-4 0h-2m-4 0h-2m-4.02 0h-2m-4 0h-2m-4 0h-2m-4.02 0h-2m-4 0h-2m-4 0h-2m-4 0h-2.02m-4 0h-2m-4 0h-2m-4 0h-2m-4.02 0h-2m-4 0h-2m-4 0h-2m-4.02 0h-2m-4 0h-2m-4 0h-2m-4 0h-2.02m-4 0h-2m-4 0h-2m-4 0h-2m-4.02 0h-2m-4 0h-2m-4 0h-2m-4.02 0h-2m-4 0h-2m-4 0h-2m-4 0H560m-4 0h-2m-4 0h-2m-4 0h-2m-4.02 0h-2m-4 0h-1l-1.04-.15m-4-1.07l-.96-.4-.83-.64m-2.93-2.92l-.64-.84-.4-.96m-1.07-4l-.14-1.03v-1m0-3.93V1178m0-3.94v-1.97m0-3.94v-1.97m0-3.95v-1.97m0-3.93v-1.97m0-3.94v-1.97m0-3.94v-1.96m0-3.94v-1.97m0-3.94v-1.96m0-3.94v-1.97m0-3.94v-1.95m0-3.94v-1.96m0-3.94v-1.96m0-3.94v-1.97m0-3.94v-1.97m0-3.94v-1.98m0-3.94v-1.96m0-3.94v-1.97m0-3.93v-1.97m0-3.93v-1.97m0-3.94v-1.97m0-3.94V1054m0-3.95v-1.97m0-3.93v-1.97m0-3.94v-1.97m0-3.93v-1.97m0-3.94v-1.97m0-3.93v-1.97m0-3.94v-.98l.13-1.04m1.07-4l.4-.95.64-.84m2.93-2.92l.83-.64.96-.4m4-1.07l1.03-.13h.96m3.87 0h1.94m3.87 0h.97" stroke="#333" fill="none"/><path d="M753.7 1236.9h-1v-.53h1z" fill="#333"/><path d="M557.38 1001.64l-14.27 4.63V997z" stroke="#333" fill="#fff"/><path d="M597.8 966.62v-.92m0-3.67v-1.83m0-3.67v-1.83m0-3.67v-1.83m0-3.67v-1.83m0-3.67v-.9l-.12-1.05m-1.07-4l-.4-.95-.63-.84m-2.93-2.94l-.84-.64-.95-.4m-4-1.07l-1.04-.13h-.98m-4 0h-1.98m-4 0h-1.98m-4 0h-1.98m-4 0h-1.98m-4 0h-1.98m-4 0h-1.98m-4 0h-1.98m-3.98 0h-2m-3.98 0h-1l-1.04-.14m-4-1.07l-.95-.38-.83-.64m-2.93-2.93l-.64-.84-.4-.95m-1.06-4l-.14-1.03v-1m0-3.96v-1.98m0-3.97v-1.97m0-3.96v-2m0-3.95v-1.98m0-3.97v-1.98m0-3.97v-2m0-3.95v-1.98m0-3.97v-1.98m0-3.97v-1.98m0-3.96v-2m0-3.95v-2m0-3.96v-1.98m0-3.97v-2m0-3.95v-2m0-3.95v-1.98m0-3.97v-1.98m0-3.97v-1.98m0-3.96v-1.98m0-3.97v-1.97m0-3.97v-1.98m0-3.96v-2m0-3.95v-1.98m0-3.98v-1.98m0-3.97v-1.98m0-3.97v-2m0-3.95v-1l.14-1.03m1.06-4l.4-.95.64-.84m2.93-2.93l.84-.64.96-.4m4-1.08l1.04-.13h.97m3.9 0h1.94m3.9 0h.97" stroke="#333" fill="none"/><path d="M598.3 967.12h-1v-.5h1z" fill="#333"/><path d="M558.44 748.5l-14.27 4.62v-9.27z" stroke="#333" fill="#333"/><path d="M955.67 998.12l-16-27.48c-1.24-2.2-3.4-3.45-5.98-3.52h-31.85c-2.56.07-4.74 1.3-5.98 3.52l-16 27.4c-1.24 2.15-1.24 4.63 0 6.84l16 27.62c1.24 2.28 3.34 3.6 5.98 3.66h31.84c2.56-.07 4.73-1.38 5.97-3.66l16-27.4c1.24-2.3 1.24-4.77 0-6.98z" stroke="#000" stroke-opacity="0" fill="#4285f4"/><path d="M951.06 1012.9l-26.24-25.98-1.88 4.04-4.1-4.04-1.87 4.04-4.04-4.04-1.02 4.88-3.6.6-.72 3.14-4.67 1.13 4.2 4.13-4.14 1.77 4.14 4.1-4.2 1.8 28 27.67h2.83c2.55-.1 4.72-1.38 5.97-3.64z" stroke="#000" stroke-opacity="0" fill-opacity=".07"/><path d="M921.3 997.5h-6.9c-.42 0-.75.3-.75.7v6.86c0 .4.33.73.74.73h6.9c.4-.02.7-.35.7-.74v-6.85c0-.4-.3-.7-.72-.7" stroke="#000" stroke-opacity="0" fill="#fff"/><path d="M932.26 996.92c.36 0 .67-.26.67-.65v-1.05c0-.36-.3-.65-.67-.65h-3.37v-3.14c0-.4-.35-.74-.74-.74H925v-3.32c0-.36-.3-.66-.67-.66h-1.08c-.36 0-.64.3-.64.66v3.34h-3.54v-3.34c-.03-.36-.33-.66-.7-.66h-1.05c-.35 0-.66.3-.66.66v3.34h-3.55v-3.34c0-.36-.3-.66-.68-.66h-1.05c-.4 0-.66.3-.66.66v3.34h-3.16c-.4 0-.72.3-.72.7v3.12h-3.38c-.36 0-.66.3-.66.65v1.07c0 .36.3.65.66.65h3.38v3.5h-3.38c-.36 0-.66.3-.66.65v1.1c0 .36.3.66.66.66h3.38v3.52h-3.38c-.36 0-.66.3-.66.66v1.08c0 .36.3.63.66.63h3.38v3.14c0 .4.3.72.72.72h3.17v3.34c0 .36.28.66.67.66h1.05c.37 0 .67-.3.67-.66v-3.34h3.54v3.34c0 .36.3.66.67.66h1.06c.37 0 .67-.3.67-.66v-3.34h3.58v3.34c0 .36.32.66.68.66h1.08c.36 0 .67-.3.67-.66v-3.34h3.16c.38-.03.7-.33.7-.72v-3.13h3.36c.36 0 .67-.3.67-.65V1007c0-.38-.3-.65-.67-.65h-3.37v-3.52h3.36c.36 0 .67-.3.67-.66v-1.07-.03c0-.36-.3-.66-.67-.66h-3.37v-3.48h3.36zm-5.85 13.22h-17.1v-16.98h17.1z" stroke="#000" stroke-opacity="0" fill="#fff"/><use xlink:href="#u" transform="matrix(1,0,0,1,878.9417964725435,1041.1572458636754) translate(12.253086419753085 13.11111111111111)"/><path d="M753.2 1236.4v-.93m0-3.67v-1.83m0-3.67v-1.83m0-3.67v-1.83m0-3.67v-1.83m0-3.67v-.9l.14-1.05m1.07-4l.4-.95.65-.84m2.93-2.93l.83-.64.97-.4m4-1.08l1.03-.13h1.02m4.05 0h2.03m4.05 0h2.03m4.05 0h2.03m4.05 0h2.04m4.05 0h2.02m4.05 0h2.03m4.05 0h2.03m4.05 0h2.03m4.05 0h2.04m4.05 0H827m4.05 0h2.03m4.05 0h2.03m4.05 0h2.03m4.05 0h2.04m4.05 0h2.02m4.05 0h2.03m4.05 0h2.03m4.05 0h2.03m4.05 0h2.04m4.05 0h2.02m4.05 0h2.03m4.05 0h2.02m4.06 0h2.02m4.06 0h2.03m4.06 0h2m4.07 0h2.02m4.05 0h2.02m4.06 0h2.02m4.06 0h2.03m4.06 0h2m4.07 0h2.02m4.05 0h2.02m4.06 0h2.02m4.06 0h2.03m4.06 0h1l1.04-.15m4-1.07l.95-.4.83-.64m2.93-2.92l.64-.84.4-.96m1.06-4l.14-1.03v-1m0-3.93V1178m0-3.94v-1.97m0-3.94v-1.97m0-3.95v-1.97m0-3.93v-1.97m0-3.94v-1.97m0-3.94v-1.96m0-3.94v-1.97m0-3.94v-1.96m0-3.94v-1.97m0-3.94v-1.95m0-3.94v-1.96m0-3.94v-1.96m0-3.94v-1.97m0-3.94v-1.97m0-3.94v-1.98m0-3.94v-1.96m0-3.94v-1.97m0-3.93v-1.97m0-3.93v-1.97m0-3.94v-1.97m0-3.94V1054m0-3.95v-1.97m0-3.93v-1.97m0-3.94v-1.97m0-3.93v-1.97m0-3.94v-1.97m0-3.93v-1.97m0-3.94v-.98l-.14-1.04m-1.06-4l-.4-.95-.64-.84m-2.93-2.92l-.84-.64-.96-.4m-4-1.07l-1.04-.13h-.85m-3.38 0h-.85" stroke="#333" fill="none"/><path d="M753.7 1236.9h-1v-.53h1z" fill="#333"/><path d="M958.16 1001.64l14.26-4.64v9.27z" stroke="#333" fill="#fff"/><path d="M956.73 744.97l-16-27.48c-1.24-2.22-3.42-3.46-5.98-3.53H902.9c-2.55.07-4.73 1.3-5.97 3.52l-16 27.4c-1.24 2.14-1.24 4.62 0 6.83l16 27.62c1.24 2.28 3.34 3.6 5.98 3.66h31.85c2.56-.06 4.74-1.37 5.98-3.65l16-27.4c1.24-2.3 1.24-4.77 0-6.98z" stroke="#000" stroke-opacity="0" fill="#4285f4"/><path d="M952.12 759.76l-26.24-26-1.88 4.05-4.1-4.03-1.87 4.04-4.05-4.03-1 4.88-3.62.6-.72 3.14-4.67 1.12 4.2 4.13-4.15 1.77 4.14 4.1-4.2 1.8 28 27.67h2.83c2.54-.1 4.7-1.4 5.96-3.65z" stroke="#000" stroke-opacity="0" fill-opacity=".07"/><path d="M922.36 744.34h-6.9c-.42 0-.75.32-.75.72v6.85c0 .4.34.74.75.74h6.9c.4 0 .72-.34.72-.73v-6.84c0-.4-.33-.72-.73-.72" stroke="#000" stroke-opacity="0" fill="#fff"/><path d="M933.32 743.77c.36 0 .66-.26.66-.65v-1.05c0-.35-.3-.65-.66-.65h-3.38v-3.14c0-.4-.33-.74-.72-.74h-3.17v-3.3c0-.37-.3-.67-.66-.67h-1.1c-.36 0-.63.3-.63.66v3.34h-3.55v-3.34c-.04-.36-.34-.66-.7-.66h-1.05c-.37 0-.67.3-.67.66v3.34h-3.55v-3.34c0-.36-.3-.66-.67-.66h-1.05c-.4 0-.67.3-.67.66v3.34h-3.16c-.4 0-.73.3-.73.7v3.12h-3.37c-.36 0-.67.3-.67.64v1.08c0 .36.3.65.67.65h3.37v3.5h-3.37c-.36 0-.67.3-.67.65v1.1c0 .36.3.66.67.66h3.37v3.52h-3.37c-.36 0-.67.3-.67.66v1.07c0 .36.3.63.67.63h3.37v3.13c0 .38.3.7.73.7h3.16v3.35c0 .36.27.66.67.66h1.05c.36 0 .67-.3.67-.65v-3.34h3.55v3.35c0 .36.3.66.67.66h1.05c.36 0 .66-.3.66-.65v-3.34h3.6v3.35c0 .36.3.66.66.66h1.08c.36 0 .66-.3.66-.65v-3.34h3.17c.4-.02.7-.32.7-.7v-3.14h3.37c.36 0 .66-.3.66-.66v-1.04c0-.4-.3-.66-.66-.66h-3.38v-3.52h3.38c.36 0 .66-.3.66-.65v-1.08-.03c0-.36-.3-.66-.66-.66h-3.38v-3.5h3.38zM927.47 757h-17.12v-17h17.12z" stroke="#000" stroke-opacity="0" fill="#fff"/><g><use xlink:href="#r" transform="matrix(1,0,0,1,880,788.0076761974757) translate(-10.583333333333343 13.11111111111111)"/></g><path d="M917.5 966.62v-.92m0-3.67v-1.83m0-3.67v-1.83m0-3.67v-1.83m0-3.67v-1.83m0-3.67v-.9l.14-1.05m1.07-4l.4-.95.65-.84m2.93-2.94l.83-.64.97-.4m4-1.07l1.03-.13h1m4.06 0h2.02m4.04 0h2.02m4.04 0h2.02m4.04 0h2.02m4.04 0h2.02m4.05 0h2.02m4.03 0h2.02m4.04 0h1l1.04-.14m4-1.07l.95-.38.83-.64m2.93-2.93l.64-.84.4-.95m1.06-4l.14-1.03v-1m0-3.96v-1.98m0-3.97v-1.97m0-3.96v-2m0-3.95v-1.98m0-3.97v-1.98m0-3.97v-2m0-3.95v-1.98m0-3.97v-1.98m0-3.97v-1.98m0-3.96v-2m0-3.95v-2m0-3.96v-1.98m0-3.97v-2m0-3.95v-2m0-3.95v-1.98m0-3.97v-1.98m0-3.97v-1.98m0-3.96v-1.98m0-3.97v-1.97m0-3.97v-1.98m0-3.96v-2m0-3.95v-1.98m0-3.98v-1.98m0-3.97v-1.98m0-3.97v-2m0-3.95v-1l-.14-1.03m-1.06-4l-.4-.95-.64-.84m-2.93-2.93l-.84-.64-.96-.4m-4-1.08l-1.04-.13h-4.02" stroke="#333" fill="none"/><path d="M918 967.12h-1v-.5h1z" fill="#333"/><path d="M959.22 748.5l14.26-4.65v9.27z" stroke="#333" fill="#333"/><path d="M600 713.47v-1m0-4.02v-2m0-4v-2.02m0-4v-2.02m0-4v-2m0-4v-2.02m0-4v-2.02m0-4v-2m0-4.02v-2m0-4.02v-2m0-4.02v-2m0-4v-2.02m0-4v-2.02m0-4v-2m0-4.03v-2m0-4v-2.02m0-4v-2m0-4.02v-2m0-4v-2.02m0-4v-2.02m0-4v-2m0-4.02v-2m0-4.02v-2m0-4.02v-1l.14-1.04m1.06-4l.4-.95.64-.85m2.93-2.93l.84-.64.96-.4m4-1.07l1.04-.12h1.02m4.1 0h2.04m4.08 0h2.05m4.08 0h2.04m4.1 0h2.03m4.1 0h2.04m4.08 0h2.04m4.1 0h2.03m4.1 0h2.04m4.07 0h2.05m4.1 0h2.03m4.1 0h2.04m4.07 0h2.05m4.1 0h2.03m4.1 0h2.03m4.1 0H705m4.1 0h2.03m4.1 0h2.03m4.1 0h2.04m4.1 0h2.03m4.1 0h2.03m4.1 0h1l1.05-.14m4-1.07l.95-.4.84-.63m2.93-2.93l.64-.83.4-.95m1.06-4l.13-1.04v-1m0-4v-2.02m0-4v-2.02m0-4v-2m0-4.03v-2m0-4v-2m0-4.02v-2m0-4.02v-2m0-4v-2.02m0-4v-2.02m0-4v-2m0-4.02v-2m0-4.02v-2m0-4.02v-2m0-4v-2.02m0-4v-2.02m0-4v-2m0-4.03v-2m0-4.02v-2m0-4.02v-2m0-4.02v-2m0-4v-2.02m0-4v-2.02m0-4v-1" stroke="#333" fill="none"/><path d="M600.5 713.97h-1v-.5h1zM753.3 412.7h-1v-.5h1z" fill="#333"/><path d="M920 713.47v-1m0-4.02v-2m0-4v-2.02m0-4v-2.02m0-4v-2m0-4v-2.02m0-4v-2.02m0-4v-2m0-4.02v-2m0-4.02v-2m0-4.02v-2m0-4v-2.02m0-4v-2.02m0-4v-2m0-4.03v-2m0-4v-2.02m0-4v-2m0-4.02v-2m0-4v-2.02m0-4v-2.02m0-4v-2m0-4.02v-2m0-4.02v-2m0-4.02v-1l-.14-1.04m-1.06-4l-.4-.95-.64-.85m-2.93-2.93l-.84-.64-.96-.4m-4-1.07l-1.04-.12h-1m-3.97 0h-2m-3.97 0h-2m-3.97 0h-2m-3.97 0h-2m-3.97 0h-2m-3.97 0h-2m-3.97 0h-2m-3.97 0h-2m-3.97 0h-2m-3.98 0h-1.98m-3.98 0h-2m-3.97 0h-2m-3.98 0h-1.98m-3.98 0h-2m-3.97 0h-2m-3.98 0h-2m-3.96 0h-2m-3.97 0h-2m-3.98 0h-2m-3.96 0h-2m-3.97 0h-2m-3.98 0h-2m-3.97 0h-1.98m-3.98 0h-1l-1.04-.14m-4-1.07l-.96-.4-.84-.63m-2.92-2.93l-.65-.83-.4-.95m-1.07-4l-.14-1.04v-1m0-4v-2.02m0-4v-2.02m0-4v-2m0-4.03v-2m0-4v-2m0-4.02v-2m0-4.02v-2m0-4v-2.02m0-4v-2.02m0-4v-2m0-4.02v-2m0-4.02v-2m0-4.02v-2m0-4v-2.02m0-4v-2.02m0-4v-2m0-4.03v-2m0-4.02v-2m0-4.02v-2m0-4.02v-2m0-4v-2.02m0-4v-2.02m0-4v-1" stroke="#333" fill="none"/><path d="M920.5 713.97h-1v-.5h1zM753.3 412.7h-1v-.5h1z" fill="#333"/><defs><path fill="#b2b2b2" d="M24-248c93 1 206-16 204 79-1 75-69 88-152 82V0H24v-248zm52 121c47 0 100 7 100-41 0-47-54-39-100-39v80" id="v"/><path fill="#b2b2b2" d="M135-150c-39-12-60 13-60 57V0H25l-1-190h47c2 13-1 29 3 40 6-28 27-53 61-41v41" id="w"/><path fill="#b2b2b2" d="M110-194c64 0 96 36 96 99 0 64-35 99-97 99-61 0-95-36-95-99 0-62 34-99 96-99zm-1 164c35 0 45-28 45-65 0-40-10-65-43-65-34 0-45 26-45 65 0 36 10 65 43 65" id="x"/><path fill="#b2b2b2" d="M128 0H69L1-190h53L99-40l48-150h52" id="y"/><path fill="#b2b2b2" d="M185-48c-13 30-37 53-82 52C43 2 14-33 14-96s30-98 90-98c62 0 83 45 84 108H66c0 31 8 55 39 56 18 0 30-7 34-22zm-45-69c5-46-57-63-70-21-2 6-4 13-4 21h74" id="z"/><path fill="#b2b2b2" d="M135-194c87-1 58 113 63 194h-50c-7-57 23-157-34-157-59 0-34 97-39 157H25l-1-190h47c2 12-1 28 3 38 12-26 28-41 61-42" id="A"/><path fill="#b2b2b2" d="M133-34C117-15 103 5 69 4 32 3 11-16 11-54c-1-60 55-63 116-61 1-26-3-47-28-47-18 1-26 9-28 27l-52-2c7-38 36-58 82-57s74 22 75 68l1 82c-1 14 12 18 25 15v27c-30 8-71 5-69-32zm-48 3c29 0 43-24 42-57-32 0-66-3-65 30 0 17 8 27 23 27" id="B"/><path fill="#b2b2b2" d="M190-63c-7 42-38 67-86 67-59 0-84-38-90-98-12-110 154-137 174-36l-49 2c-2-19-15-32-35-32-30 0-35 28-38 64-6 74 65 87 74 30" id="C"/><path fill="#b2b2b2" d="M14-72v-43h91v43H14" id="D"/><path fill="#b2b2b2" d="M25-224v-37h50v37H25zM25 0v-190h50V0H25" id="E"/><path fill="#b2b2b2" d="M182-130c37 4 62 22 62 59C244 23 116-4 24 0v-248c84 5 203-23 205 63 0 31-19 50-47 55zM76-148c40-3 101 13 101-30 0-44-60-28-101-31v61zm0 110c48-3 116 14 116-37 0-48-69-32-116-35v72" id="F"/><path fill="#b2b2b2" d="M25 0v-261h50V0H25" id="G"/><path fill="#b2b2b2" d="M147 0L96-86 75-71V0H25v-261h50v150l67-79h53l-66 74L201 0h-54" id="H"/><path fill="#b2b2b2" d="M114-157C55-157 80-60 75 0H25v-261h50l-1 109c12-26 28-41 61-42 86-1 58 113 63 194h-50c-7-57 23-157-34-157" id="I"/><g id="a"><use transform="matrix(0.0728395061728395,0,0,0.0728395061728395,0,0)" xlink:href="#v"/><use transform="matrix(0.0728395061728395,0,0,0.0728395061728395,17.48148148148148,0)" xlink:href="#w"/><use transform="matrix(0.0728395061728395,0,0,0.0728395061728395,27.679012345679013,0)" xlink:href="#x"/><use transform="matrix(0.0728395061728395,0,0,0.0728395061728395,43.63086419753086,0)" xlink:href="#y"/><use transform="matrix(0.0728395061728395,0,0,0.0728395061728395,58.19876543209875,0)" xlink:href="#z"/><use transform="matrix(0.0728395061728395,0,0,0.0728395061728395,72.76666666666667,0)" xlink:href="#A"/><use transform="matrix(0.0728395061728395,0,0,0.0728395061728395,88.71851851851852,0)" xlink:href="#B"/><use transform="matrix(0.0728395061728395,0,0,0.0728395061728395,103.28641975308642,0)" xlink:href="#C"/><use transform="matrix(0.0728395061728395,0,0,0.0728395061728395,117.85432098765432,0)" xlink:href="#z"/><use transform="matrix(0.0728395061728395,0,0,0.0728395061728395,132.42222222222222,0)" xlink:href="#D"/><use transform="matrix(0.0728395061728395,0,0,0.0728395061728395,141.0901234567901,0)" xlink:href="#E"/><use transform="matrix(0.0728395061728395,0,0,0.0728395061728395,148.37407407407406,0)" xlink:href="#x"/><use transform="matrix(0.0728395061728395,0,0,0.0728395061728395,164.3259259259259,0)" xlink:href="#D"/><use transform="matrix(0.0728395061728395,0,0,0.0728395061728395,172.9938271604938,0)" xlink:href="#F"/><use transform="matrix(0.0728395061728395,0,0,0.0728395061728395,191.85925925925923,0)" xlink:href="#G"/><use transform="matrix(0.0728395061728395,0,0,0.0728395061728395,199.14320987654318,0)" xlink:href="#x"/><use transform="matrix(0.0728395061728395,0,0,0.0728395061728395,215.09506172839502,0)" xlink:href="#C"/><use transform="matrix(0.0728395061728395,0,0,0.0728395061728395,229.66296296296292,0)" xlink:href="#H"/><use transform="matrix(0.0728395061728395,0,0,0.0728395061728395,244.23086419753082,0)" xlink:href="#C"/><use transform="matrix(0.0728395061728395,0,0,0.0728395061728395,258.7987654320987,0)" xlink:href="#I"/><use transform="matrix(0.0728395061728395,0,0,0.0728395061728395,274.7506172839506,0)" xlink:href="#B"/><use transform="matrix(0.0728395061728395,0,0,0.0728395061728395,289.3185185185185,0)" xlink:href="#E"/><use transform="matrix(0.0728395061728395,0,0,0.0728395061728395,296.60246913580244,0)" xlink:href="#A"/></g><path fill="#b2b2b2" d="M27 0v-27h64v-190l-56 39v-29l58-41h29v221h61V0H27" id="J"/><use transform="matrix(0.04248971193415638,0,0,0.04248971193415638,0,0)" xlink:href="#J" id="b"/><path fill="#b2b2b2" d="M240 0l2-218c-23 76-54 145-80 218h-23L58-218 59 0H30v-248h44l77 211c21-75 51-140 76-211h43V0h-30" id="K"/><path fill="#b2b2b2" d="M141-36C126-15 110 5 73 4 37 3 15-17 15-53c-1-64 63-63 125-63 3-35-9-54-41-54-24 1-41 7-42 31l-33-3c5-37 33-52 76-52 45 0 72 20 72 64v82c-1 20 7 32 28 27v20c-31 9-61-2-59-35zM48-53c0 20 12 33 32 33 41-3 63-29 60-74-43 2-92-5-92 41" id="L"/><path fill="#b2b2b2" d="M59-47c-2 24 18 29 38 22v24C64 9 27 4 27-40v-127H5v-23h24l9-43h21v43h35v23H59v120" id="M"/><path fill="#b2b2b2" d="M106-169C34-169 62-67 57 0H25v-261h32l-1 103c12-21 28-36 61-36 89 0 53 116 60 194h-32v-121c2-32-8-49-39-48" id="N"/><path fill="#b2b2b2" d="M100-194c63 0 86 42 84 106H49c0 40 14 67 53 68 26 1 43-12 49-29l28 8c-11 28-37 45-77 45C44 4 14-33 15-96c1-61 26-98 85-98zm52 81c6-60-76-77-97-28-3 7-6 17-6 28h103" id="O"/><path fill="#b2b2b2" d="M206 0h-36l-40-164L89 0H53L-1-190h32L70-26l43-164h34l41 164 42-164h31" id="P"/><g id="c"><use transform="matrix(0.04248971193415638,0,0,0.04248971193415638,0,0)" xlink:href="#K"/><use transform="matrix(0.04248971193415638,0,0,0.04248971193415638,12.704423868312757,0)" xlink:href="#L"/><use transform="matrix(0.04248971193415638,0,0,0.04248971193415638,21.20236625514403,0)" xlink:href="#M"/><use transform="matrix(0.04248971193415638,0,0,0.04248971193415638,25.45133744855967,0)" xlink:href="#M"/><use transform="matrix(0.04248971193415638,0,0,0.04248971193415638,29.700308641975308,0)" xlink:href="#N"/><use transform="matrix(0.04248971193415638,0,0,0.04248971193415638,38.19825102880658,0)" xlink:href="#O"/><use transform="matrix(0.04248971193415638,0,0,0.04248971193415638,46.69619341563786,0)" xlink:href="#P"/></g><path fill="#b2b2b2" d="M30 0v-248h33v221h125V0H30" id="Q"/><path fill="#b2b2b2" d="M24-231v-30h32v30H24zM24 0v-190h32V0H24" id="R"/><path fill="#b2b2b2" d="M210-169c-67 3-38 105-44 169h-31v-121c0-29-5-50-35-48C34-165 62-65 56 0H25l-1-190h30c1 10-1 24 2 32 10-44 99-50 107 0 11-21 27-35 58-36 85-2 47 119 55 194h-31v-121c0-29-5-49-35-48" id="S"/><path fill="#b2b2b2" d="M114-163C36-179 61-72 57 0H25l-1-190h30c1 12-1 29 2 39 6-27 23-49 58-41v29" id="T"/><g id="d"><use transform="matrix(0.04248971193415638,0,0,0.04248971193415638,0,0)" xlink:href="#Q"/><use transform="matrix(0.04248971193415638,0,0,0.04248971193415638,8.497942386831275,0)" xlink:href="#L"/><use transform="matrix(0.04248971193415638,0,0,0.04248971193415638,16.99588477366255,0)" xlink:href="#M"/><use transform="matrix(0.04248971193415638,0,0,0.04248971193415638,21.244855967078188,0)" xlink:href="#R"/><use transform="matrix(0.04248971193415638,0,0,0.04248971193415638,24.601543209876542,0)" xlink:href="#S"/><use transform="matrix(0.04248971193415638,0,0,0.04248971193415638,37.3059670781893,0)" xlink:href="#O"/><use transform="matrix(0.04248971193415638,0,0,0.04248971193415638,45.803909465020574,0)" xlink:href="#T"/></g><path fill="#b2b2b2" d="M32 76v-337h29V76H32" id="U"/><use transform="matrix(0.04248971193415638,0,0,0.04248971193415638,0,0)" xlink:href="#U" id="e"/><path fill="#b2b2b2" d="M30-248c118-7 216 8 213 122C240-48 200 0 122 0H30v-248zM63-27c89 8 146-16 146-99s-60-101-146-95v194" id="V"/><path fill="#b2b2b2" d="M96-169c-40 0-48 33-48 73s9 75 48 75c24 0 41-14 43-38l32 2c-6 37-31 61-74 61-59 0-76-41-82-99-10-93 101-131 147-64 4 7 5 14 7 22l-32 3c-4-21-16-35-41-35" id="W"/><path fill="#b2b2b2" d="M115-194c53 0 69 39 70 98 0 66-23 100-70 100C84 3 66-7 56-30L54 0H23l1-261h32v101c10-23 28-34 59-34zm-8 174c40 0 45-34 45-75 0-40-5-75-45-74-42 0-51 32-51 76 0 43 10 73 51 73" id="X"/><g id="f"><use transform="matrix(0.04248971193415638,0,0,0.04248971193415638,0,0)" xlink:href="#V"/><use transform="matrix(0.04248971193415638,0,0,0.04248971193415638,11.004835390946502,0)" xlink:href="#O"/><use transform="matrix(0.04248971193415638,0,0,0.04248971193415638,19.502777777777776,0)" xlink:href="#W"/><use transform="matrix(0.04248971193415638,0,0,0.04248971193415638,27.150925925925925,0)" xlink:href="#O"/><use transform="matrix(0.04248971193415638,0,0,0.04248971193415638,35.6488683127572,0)" xlink:href="#S"/><use transform="matrix(0.04248971193415638,0,0,0.04248971193415638,48.35329218106995,0)" xlink:href="#X"/><use transform="matrix(0.04248971193415638,0,0,0.04248971193415638,56.851234567901244,0)" xlink:href="#O"/><use transform="matrix(0.04248971193415638,0,0,0.04248971193415638,65.34917695473251,0)" xlink:href="#T"/></g><path fill="#b2b2b2" d="M101-251c82-7 93 87 43 132L82-64C71-53 59-42 53-27h129V0H18c2-99 128-94 128-182 0-28-16-43-45-43s-46 15-49 41l-32-3c6-41 34-60 81-64" id="Y"/><path fill="#b2b2b2" d="M68-38c1 34 0 65-14 84H32c9-13 17-26 17-46H33v-38h35" id="Z"/><g id="g"><use transform="matrix(0.04248971193415638,0,0,0.04248971193415638,0,0)" xlink:href="#Y"/><use transform="matrix(0.04248971193415638,0,0,0.04248971193415638,8.497942386831275,0)" xlink:href="#Z"/></g><path fill="#b2b2b2" d="M101-251c68 0 85 55 85 127S166 4 100 4C33 4 14-52 14-124c0-73 17-127 87-127zm-1 229c47 0 54-49 54-102s-4-102-53-102c-51 0-55 48-55 102 0 53 5 102 54 102" id="aa"/><g id="h"><use transform="matrix(0.04248971193415638,0,0,0.04248971193415638,0,0)" xlink:href="#Y"/><use transform="matrix(0.04248971193415638,0,0,0.04248971193415638,8.497942386831275,0)" xlink:href="#aa"/><use transform="matrix(0.04248971193415638,0,0,0.04248971193415638,16.99588477366255,0)" xlink:href="#Y"/><use transform="matrix(0.04248971193415638,0,0,0.04248971193415638,25.493827160493822,0)" xlink:href="#aa"/></g><path fill="#333" d="M1288 0h-193L362-1122V0H169v-1456h193l735 1127v-1127h191V0" id="ab"/><path fill="#333" d="M599-131c141 0 220-65 285-146l113 88C906-50 770 20 589 20 281 21 93-214 93-545c0-223 93-397 233-485 74-48 154-72 240-72 300 2 449 218 445 537v77H278c0 197 129 357 321 357zm227-509c-3-180-88-310-260-310-170 0-264 140-282 310h542" id="ac"/><path fill="#333" d="M456 20C285 20 205-92 206-268v-671H9v-143h197v-262h185v262h202v143H391v671c-9 125 92 149 207 118V0c-49 13-96 20-142 20" id="ad"/><path fill="#333" d="M1098-255l208-827h185L1176 0h-150L763-820 507 0H357L43-1082h184l213 810 252-810h149" id="ae"/><path fill="#333" d="M584 20C278 26 81-227 91-551c10-320 175-545 491-551 308-5 503 247 494 573-9 322-175 543-492 549zm-2-970c-208 0-305 185-305 421 0 216 106 398 307 398 211 0 307-186 307-420 0-214-109-399-309-399" id="af"/><path fill="#333" d="M663-916c-163-27-288 18-338 148V0H140v-1082h180l3 125c61-97 147-145 258-145 36 0 63 5 82 14v172" id="ag"/><path fill="#333" d="M442-501L326-380V0H141v-1536h185v929c135-169 291-317 436-475h225L566-630 1036 0H819" id="ah"/><g id="i"><use transform="matrix(0.0087890625,0,0,0.0087890625,0,0)" xlink:href="#ab"/><use transform="matrix(0.0087890625,0,0,0.0087890625,12.83203125,0)" xlink:href="#ac"/><use transform="matrix(0.0087890625,0,0,0.0087890625,22.3681640625,0)" xlink:href="#ad"/><use transform="matrix(0.0087890625,0,0,0.0087890625,28.248046875,0)" xlink:href="#ae"/><use transform="matrix(0.0087890625,0,0,0.0087890625,41.7744140625,0)" xlink:href="#af"/><use transform="matrix(0.0087890625,0,0,0.0087890625,52.0400390625,0)" xlink:href="#ag"/><use transform="matrix(0.0087890625,0,0,0.0087890625,58.130859375,0)" xlink:href="#ah"/></g><path fill="#333" d="M729 0H543v-1233l-373 137v-168l530-199h29V0" id="ai"/><path fill="#333" d="M574-1476c351 0 454 237 460 615v240c0 217-37 378-111 483S733 20 576 20c-346 0-454-246-461-616v-247c0-214 37-373 111-477s190-156 348-156zm275 905c0-337 59-752-275-753-95 0-160 38-207 107-80 118-66 409-67 625 0 157 22 273 68 348s115 113 208 113c91 0 160-35 204-106s69-182 69-334" id="aj"/><path fill="#333" d="M258 11c-71 0-114-43-114-108 0-67 42-112 114-112s116 45 116 112c-1 65-45 108-116 108" id="ak"/><path fill="#333" d="M177 125H18l608-1581h158" id="al"/><path fill="#333" d="M132-554c0-555 187-908 715-903v157c-320-8-501 179-526 477 77-88 181-132 314-132 259 0 417 214 417 480 0 286-172 495-451 495-293 0-469-266-469-574zm737 88c0-181-95-335-265-335-133 0-252 96-286 200v68c-6 207 101 397 283 400 175 3 268-150 268-333" id="am"/><g id="j"><use transform="matrix(0.007595486111111112,0,0,0.007595486111111112,0,0)" xlink:href="#ai"/><use transform="matrix(0.007595486111111112,0,0,0.007595486111111112,8.734809027777779,0)" xlink:href="#aj"/><use transform="matrix(0.007595486111111112,0,0,0.007595486111111112,17.469618055555557,0)" xlink:href="#ak"/><use transform="matrix(0.007595486111111112,0,0,0.007595486111111112,21.563585069444446,0)" xlink:href="#aj"/><use transform="matrix(0.007595486111111112,0,0,0.007595486111111112,30.298394097222225,0)" xlink:href="#ak"/><use transform="matrix(0.007595486111111112,0,0,0.007595486111111112,34.392361111111114,0)" xlink:href="#aj"/><use transform="matrix(0.007595486111111112,0,0,0.007595486111111112,43.12717013888889,0)" xlink:href="#ak"/><use transform="matrix(0.007595486111111112,0,0,0.007595486111111112,47.221137152777786,0)" xlink:href="#aj"/><use transform="matrix(0.007595486111111112,0,0,0.007595486111111112,55.955946180555564,0)" xlink:href="#al"/><use transform="matrix(0.007595486111111112,0,0,0.007595486111111112,62.36653645833334,0)" xlink:href="#ai"/><use transform="matrix(0.007595486111111112,0,0,0.007595486111111112,71.10134548611111,0)" xlink:href="#am"/></g><path fill="#333" d="M497-251l268-831h189L566 0H425L33-1082h189" id="an"/><path fill="#333" d="M561-1102c238-4 403 126 403 351v498c0 99 13 178 38 237V0H808c-11-21-19-59-26-114C696-25 593 20 474 20c-199 0-368-130-365-320 4-251 214-359 490-356h180v-85c-1-135-86-212-229-212-115 0-232 67-233 171H131c20-205 206-316 430-320zM294-326c0 117 90 185 207 185 122 0 239-75 278-162v-222H634c-227 0-340 66-340 199" id="ao"/><path fill="#333" d="M341 0H156v-1536h185V0" id="ap"/><path fill="#333" d="M341 0H156v-1082h185V0zm-91-1264c-68 0-108-42-109-105 0-62 41-107 109-107s110 44 110 107-42 105-110 105" id="aq"/><path fill="#333" d="M520 20C244 20 95-247 95-550c0-298 151-550 427-552 127 0 227 43 301 130v-564h185V0H838l-9-116C755-25 652 20 520 20zm48-965c-210 0-288 177-288 416 0 218 87 392 286 392 117 0 203-53 257-158v-497c-55-102-140-153-255-153" id="ar"/><path fill="#333" d="M525-543H37v-151h488v151" id="as"/><path fill="#333" d="M589-945c-131 0-219 81-264 174V0H140v-1082h175l6 136c83-104 191-156 324-156 229 0 346 129 346 387V0H806v-716c-2-153-65-229-217-229" id="at"/><g id="k"><use transform="matrix(0.0087890625,0,0,0.0087890625,0,0)" xlink:href="#an"/><use transform="matrix(0.0087890625,0,0,0.0087890625,8.5869140625,0)" xlink:href="#ao"/><use transform="matrix(0.0087890625,0,0,0.0087890625,18.3779296875,0)" xlink:href="#ap"/><use transform="matrix(0.0087890625,0,0,0.0087890625,22.74609375,0)" xlink:href="#aq"/><use transform="matrix(0.0087890625,0,0,0.0087890625,27.1142578125,0)" xlink:href="#ar"/><use transform="matrix(0.0087890625,0,0,0.0087890625,37.265625,0)" xlink:href="#ao"/><use transform="matrix(0.0087890625,0,0,0.0087890625,47.056640625,0)" xlink:href="#ad"/><use transform="matrix(0.0087890625,0,0,0.0087890625,52.7607421875,0)" xlink:href="#af"/><use transform="matrix(0.0087890625,0,0,0.0087890625,63.0263671875,0)" xlink:href="#ag"/><use transform="matrix(0.0087890625,0,0,0.0087890625,69.1171875,0)" xlink:href="#as"/><use transform="matrix(0.0087890625,0,0,0.0087890625,74.0830078125,0)" xlink:href="#at"/><use transform="matrix(0.0087890625,0,0,0.0087890625,84.0146484375,0)" xlink:href="#ac"/><use transform="matrix(0.0087890625,0,0,0.0087890625,93.55078125,0)" xlink:href="#ad"/><use transform="matrix(0.0087890625,0,0,0.0087890625,99.4306640625,0)" xlink:href="#ae"/><use transform="matrix(0.0087890625,0,0,0.0087890625,112.95703125,0)" xlink:href="#af"/><use transform="matrix(0.0087890625,0,0,0.0087890625,123.22265625,0)" xlink:href="#ag"/><use transform="matrix(0.0087890625,0,0,0.0087890625,129.3134765625,0)" xlink:href="#ah"/></g><path fill="#333" d="M503-687l240-395h216L605-547 970 0H756L506-405 256 0H41l365-547-354-535h214" id="au"/><path fill="#333" d="M494-271l252-811h198L509 167C425 381 299 474 84 421V271c167 16 242-37 283-173l41-110L22-1082h202" id="av"/><path fill="#333" d="M314-151h633V0H88v-136l597-793H97v-153h820v131" id="aw"/><path fill="#333" d="M569-1476c255 0 440 146 439 390 0 143-91 314-274 512L344-151h731V0H121v-133l504-560c75-85 125-155 155-207 105-184 6-424-211-424-183 0-293 113-291 297H93c-3-270 199-449 476-449" id="ax"/><path fill="#333" d="M902-489h202v151H902V0H716v-338H53v-109l652-1009h197v967zm-639 0h453v-714l-22 40" id="ay"/><g id="l"><use transform="matrix(0.007595486111111112,0,0,0.007595486111111112,0,0)" xlink:href="#ai"/><use transform="matrix(0.007595486111111112,0,0,0.007595486111111112,8.734809027777779,0)" xlink:href="#aj"/><use transform="matrix(0.007595486111111112,0,0,0.007595486111111112,17.469618055555557,0)" xlink:href="#ak"/><use transform="matrix(0.007595486111111112,0,0,0.007595486111111112,21.563585069444446,0)" xlink:href="#au"/><use transform="matrix(0.007595486111111112,0,0,0.007595486111111112,29.273003472222225,0)" xlink:href="#ak"/><use transform="matrix(0.007595486111111112,0,0,0.007595486111111112,33.366970486111114,0)" xlink:href="#av"/><use transform="matrix(0.007595486111111112,0,0,0.007595486111111112,39.9142795138889,0)" xlink:href="#ak"/><use transform="matrix(0.007595486111111112,0,0,0.007595486111111112,44.008246527777786,0)" xlink:href="#aw"/><use transform="matrix(0.007595486111111112,0,0,0.007595486111111112,51.717664930555564,0)" xlink:href="#al"/><use transform="matrix(0.007595486111111112,0,0,0.007595486111111112,58.12825520833334,0)" xlink:href="#ax"/><use transform="matrix(0.007595486111111112,0,0,0.007595486111111112,66.86306423611111,0)" xlink:href="#ay"/></g><path fill="#333" d="M108 0H70L1-190h34L89-25l56-165h34" id="az"/><path fill="#333" d="M141-36C126-15 110 5 73 4 37 3 15-17 15-53c-1-64 63-63 125-63 3-35-9-54-41-54-24 1-41 7-42 31l-33-3c5-37 33-52 76-52 45 0 72 20 72 64v82c-1 20 7 32 28 27v20c-31 9-61-2-59-35zM48-53c0 20 12 33 32 33 41-3 63-29 60-74-43 2-92-5-92 41" id="aA"/><path fill="#333" d="M24 0v-261h32V0H24" id="aB"/><path fill="#333" d="M24-231v-30h32v30H24zM24 0v-190h32V0H24" id="aC"/><path fill="#333" d="M85-194c31 0 48 13 60 33l-1-100h32l1 261h-30c-2-10 0-23-3-31C134-8 116 4 85 4 32 4 16-35 15-94c0-66 23-100 70-100zm9 24c-40 0-46 34-46 75 0 40 6 74 45 74 42 0 51-32 51-76 0-42-9-74-50-73" id="aD"/><path fill="#333" d="M59-47c-2 24 18 29 38 22v24C64 9 27 4 27-40v-127H5v-23h24l9-43h21v43h35v23H59v120" id="aE"/><path fill="#333" d="M100-194c62-1 85 37 85 99 1 63-27 99-86 99S16-35 15-95c0-66 28-99 85-99zM99-20c44 1 53-31 53-75 0-43-8-75-51-75s-53 32-53 75 10 74 51 75" id="aF"/><path fill="#333" d="M114-163C36-179 61-72 57 0H25l-1-190h30c1 12-1 29 2 39 6-27 23-49 58-41v29" id="aG"/><g id="m"><use transform="matrix(0.04320987654320988,0,0,0.04320987654320988,0,0)" xlink:href="#az"/><use transform="matrix(0.04320987654320988,0,0,0.04320987654320988,7.777777777777779,0)" xlink:href="#aA"/><use transform="matrix(0.04320987654320988,0,0,0.04320987654320988,16.419753086419753,0)" xlink:href="#aB"/><use transform="matrix(0.04320987654320988,0,0,0.04320987654320988,19.833333333333336,0)" xlink:href="#aC"/><use transform="matrix(0.04320987654320988,0,0,0.04320987654320988,23.246913580246915,0)" xlink:href="#aD"/><use transform="matrix(0.04320987654320988,0,0,0.04320987654320988,31.888888888888893,0)" xlink:href="#aA"/><use transform="matrix(0.04320987654320988,0,0,0.04320987654320988,40.53086419753087,0)" xlink:href="#aE"/><use transform="matrix(0.04320987654320988,0,0,0.04320987654320988,44.851851851851855,0)" xlink:href="#aF"/><use transform="matrix(0.04320987654320988,0,0,0.04320987654320988,53.49382716049383,0)" xlink:href="#aG"/></g><path fill="#333" d="M538-131c121 0 232-49 232-156 0-50-20-88-56-117-73-60-334-92-420-143-92-55-162-110-162-238 0-190 192-317 400-317 223 0 414 129 413 338H759c0-108-110-186-227-186-119 0-215 53-215 159 0 45 18 78 53 101 76 52 331 90 416 139 98 57 169 115 169 251C955-92 760 20 538 20c-176 0-314-68-386-174-38-55-57-115-57-179h185c6 129 116 202 258 202" id="aH"/><g id="n"><use transform="matrix(0.0087890625,0,0,0.0087890625,0,0)" xlink:href="#aH"/><use transform="matrix(0.0087890625,0,0,0.0087890625,9.28125,0)" xlink:href="#ac"/><use transform="matrix(0.0087890625,0,0,0.0087890625,18.8173828125,0)" xlink:href="#at"/><use transform="matrix(0.0087890625,0,0,0.0087890625,28.7490234375,0)" xlink:href="#ad"/><use transform="matrix(0.0087890625,0,0,0.0087890625,34.62890625,0)" xlink:href="#aq"/><use transform="matrix(0.0087890625,0,0,0.0087890625,38.9970703125,0)" xlink:href="#at"/><use transform="matrix(0.0087890625,0,0,0.0087890625,48.9287109375,0)" xlink:href="#ac"/><use transform="matrix(0.0087890625,0,0,0.0087890625,58.46484375,0)" xlink:href="#ap"/><use transform="matrix(0.0087890625,0,0,0.0087890625,62.8330078125,0)" xlink:href="#as"/><use transform="matrix(0.0087890625,0,0,0.0087890625,67.798828125,0)" xlink:href="#at"/><use transform="matrix(0.0087890625,0,0,0.0087890625,77.73046875,0)" xlink:href="#ac"/><use transform="matrix(0.0087890625,0,0,0.0087890625,87.2666015625,0)" xlink:href="#ad"/><use transform="matrix(0.0087890625,0,0,0.0087890625,93.146484375,0)" xlink:href="#ae"/><use transform="matrix(0.0087890625,0,0,0.0087890625,106.6728515625,0)" xlink:href="#af"/><use transform="matrix(0.0087890625,0,0,0.0087890625,116.9384765625,0)" xlink:href="#ag"/><use transform="matrix(0.0087890625,0,0,0.0087890625,123.029296875,0)" xlink:href="#ah"/></g><path fill="#333" d="M135-143c-3-34-86-38-87 0 15 53 115 12 119 90S17 21 10-45l28-5c4 36 97 45 98 0-10-56-113-15-118-90-4-57 82-63 122-42 12 7 21 19 24 35" id="aI"/><path fill="#333" d="M100-194c63 0 86 42 84 106H49c0 40 14 67 53 68 26 1 43-12 49-29l28 8c-11 28-37 45-77 45C44 4 14-33 15-96c1-61 26-98 85-98zm52 81c6-60-76-77-97-28-3 7-6 17-6 28h103" id="aJ"/><path fill="#333" d="M117-194c89-4 53 116 60 194h-32v-121c0-31-8-49-39-48C34-167 62-67 57 0H25l-1-190h30c1 10-1 24 2 32 11-22 29-35 61-36" id="aK"/><g id="o"><use transform="matrix(0.04320987654320988,0,0,0.04320987654320988,0,0)" xlink:href="#aI"/><use transform="matrix(0.04320987654320988,0,0,0.04320987654320988,7.777777777777779,0)" xlink:href="#aJ"/><use transform="matrix(0.04320987654320988,0,0,0.04320987654320988,16.419753086419753,0)" xlink:href="#aK"/><use transform="matrix(0.04320987654320988,0,0,0.04320987654320988,25.061728395061728,0)" xlink:href="#aE"/><use transform="matrix(0.04320987654320988,0,0,0.04320987654320988,29.382716049382715,0)" xlink:href="#aC"/><use transform="matrix(0.04320987654320988,0,0,0.04320987654320988,32.7962962962963,0)" xlink:href="#aK"/><use transform="matrix(0.04320987654320988,0,0,0.04320987654320988,41.43827160493827,0)" xlink:href="#aJ"/><use transform="matrix(0.04320987654320988,0,0,0.04320987654320988,50.08024691358024,0)" xlink:href="#aB"/></g><path fill="#333" d="M632-1102c291 0 422 251 422 573 0 297-141 548-419 549-131 0-235-42-310-125v521H140v-1498h169l9 120c75-93 180-140 314-140zm-53 971c207 0 290-180 290-419 0-218-92-395-292-395-112 0-196 50-252 149v517c55 99 140 148 254 148" id="aL"/><path fill="#333" d="M491 20c-241-1-355-148-355-398v-704h185v699c0 164 67 246 200 246 141 0 235-53 282-158v-787h185V0H812l-4-107C736-22 630 20 491 20" id="aM"/><path fill="#333" d="M634-1102c292 0 422 254 422 573 0 298-143 547-420 549-137 0-242-48-317-145L310 0H140v-1536h185v573c75-93 178-139 309-139zm-44 965c207 0 281-175 281-413 0-224-79-395-283-395-122 0-210 57-263 170v468c57 113 145 170 265 170" id="aN"/><path fill="#333" d="M277-555c0 244 77 420 297 424 127 2 249-93 255-210h175C980-127 805 20 574 20 258 20 81-222 92-562c11-319 164-533 481-540 237-5 426 165 431 392H829c-7-133-115-242-256-240-209 4-296 166-296 395" id="aO"/><g id="p"><use transform="matrix(0.0087890625,0,0,0.0087890625,0,0)" xlink:href="#aL"/><use transform="matrix(0.0087890625,0,0,0.0087890625,10.0986328125,0)" xlink:href="#aM"/><use transform="matrix(0.0087890625,0,0,0.0087890625,20.021484375,0)" xlink:href="#aN"/><use transform="matrix(0.0087890625,0,0,0.0087890625,30.1201171875,0)" xlink:href="#ap"/><use transform="matrix(0.0087890625,0,0,0.0087890625,34.48828125,0)" xlink:href="#aq"/><use transform="matrix(0.0087890625,0,0,0.0087890625,38.8564453125,0)" xlink:href="#aO"/><use transform="matrix(0.0087890625,0,0,0.0087890625,48.2783203125,0)" xlink:href="#as"/><use transform="matrix(0.0087890625,0,0,0.0087890625,53.244140625,0)" xlink:href="#aH"/><use transform="matrix(0.0087890625,0,0,0.0087890625,62.525390625,0)" xlink:href="#ac"/><use transform="matrix(0.0087890625,0,0,0.0087890625,72.0615234375,0)" xlink:href="#at"/><use transform="matrix(0.0087890625,0,0,0.0087890625,81.9931640625,0)" xlink:href="#ad"/><use transform="matrix(0.0087890625,0,0,0.0087890625,87.873046875,0)" xlink:href="#aq"/><use transform="matrix(0.0087890625,0,0,0.0087890625,92.2412109375,0)" xlink:href="#at"/><use transform="matrix(0.0087890625,0,0,0.0087890625,102.1728515625,0)" xlink:href="#ac"/><use transform="matrix(0.0087890625,0,0,0.0087890625,111.708984375,0)" xlink:href="#ap"/><use transform="matrix(0.0087890625,0,0,0.0087890625,116.0771484375,0)" xlink:href="#as"/><use transform="matrix(0.0087890625,0,0,0.0087890625,121.04296875,0)" xlink:href="#at"/><use transform="matrix(0.0087890625,0,0,0.0087890625,130.974609375,0)" xlink:href="#ac"/><use transform="matrix(0.0087890625,0,0,0.0087890625,140.5107421875,0)" xlink:href="#ad"/><use transform="matrix(0.0087890625,0,0,0.0087890625,146.390625,0)" xlink:href="#ae"/><use transform="matrix(0.0087890625,0,0,0.0087890625,159.9169921875,0)" xlink:href="#af"/><use transform="matrix(0.0087890625,0,0,0.0087890625,170.1826171875,0)" xlink:href="#ag"/><use transform="matrix(0.0087890625,0,0,0.0087890625,176.2734375,0)" xlink:href="#ah"/></g><g id="q"><use transform="matrix(0.007595486111111112,0,0,0.007595486111111112,0,0)" xlink:href="#ai"/><use transform="matrix(0.007595486111111112,0,0,0.007595486111111112,8.734809027777779,0)" xlink:href="#aj"/><use transform="matrix(0.007595486111111112,0,0,0.007595486111111112,17.469618055555557,0)" xlink:href="#ak"/><use transform="matrix(0.007595486111111112,0,0,0.007595486111111112,21.563585069444446,0)" xlink:href="#au"/><use transform="matrix(0.007595486111111112,0,0,0.007595486111111112,29.273003472222225,0)" xlink:href="#ak"/><use transform="matrix(0.007595486111111112,0,0,0.007595486111111112,33.366970486111114,0)" xlink:href="#av"/><use transform="matrix(0.007595486111111112,0,0,0.007595486111111112,39.9142795138889,0)" xlink:href="#ak"/><use transform="matrix(0.007595486111111112,0,0,0.007595486111111112,44.008246527777786,0)" xlink:href="#aw"/><use transform="matrix(0.007595486111111112,0,0,0.007595486111111112,51.717664930555564,0)" xlink:href="#al"/><use transform="matrix(0.007595486111111112,0,0,0.007595486111111112,58.12825520833334,0)" xlink:href="#ax"/><use transform="matrix(0.007595486111111112,0,0,0.007595486111111112,66.86306423611111,0)" xlink:href="#ay"/></g><path fill="#333" d="M115-194c55 1 70 41 70 98S169 2 115 4C84 4 66-9 55-30l1 105H24l-1-265h31l2 30c10-21 28-34 59-34zm-8 174c40 0 45-34 45-75s-6-73-45-74c-42 0-51 32-51 76 0 43 10 73 51 73" id="aP"/><path fill="#333" d="M84 4C-5 8 30-112 23-190h32v120c0 31 7 50 39 49 72-2 45-101 50-169h31l1 190h-30c-1-10 1-25-2-33-11 22-28 36-60 37" id="aQ"/><path fill="#333" d="M115-194c53 0 69 39 70 98 0 66-23 100-70 100C84 3 66-7 56-30L54 0H23l1-261h32v101c10-23 28-34 59-34zm-8 174c40 0 45-34 45-75 0-40-5-75-45-74-42 0-51 32-51 76 0 43 10 73 51 73" id="aR"/><path fill="#333" d="M96-169c-40 0-48 33-48 73s9 75 48 75c24 0 41-14 43-38l32 2c-6 37-31 61-74 61-59 0-76-41-82-99-10-93 101-131 147-64 4 7 5 14 7 22l-32 3c-4-21-16-35-41-35" id="aS"/><path fill="#333" d="M16-82v-28h88v28H16" id="aT"/><g id="r"><use transform="matrix(0.04320987654320988,0,0,0.04320987654320988,0,0)" xlink:href="#aP"/><use transform="matrix(0.04320987654320988,0,0,0.04320987654320988,8.641975308641976,0)" xlink:href="#aQ"/><use transform="matrix(0.04320987654320988,0,0,0.04320987654320988,17.283950617283953,0)" xlink:href="#aR"/><use transform="matrix(0.04320987654320988,0,0,0.04320987654320988,25.925925925925927,0)" xlink:href="#aB"/><use transform="matrix(0.04320987654320988,0,0,0.04320987654320988,29.339506172839513,0)" xlink:href="#aC"/><use transform="matrix(0.04320987654320988,0,0,0.04320987654320988,32.753086419753096,0)" xlink:href="#aS"/><use transform="matrix(0.04320987654320988,0,0,0.04320987654320988,40.530864197530875,0)" xlink:href="#aT"/><use transform="matrix(0.04320987654320988,0,0,0.04320987654320988,45.67283950617284,0)" xlink:href="#aI"/><use transform="matrix(0.04320987654320988,0,0,0.04320987654320988,53.45061728395062,0)" xlink:href="#aJ"/><use transform="matrix(0.04320987654320988,0,0,0.04320987654320988,62.0925925925926,0)" xlink:href="#aK"/><use transform="matrix(0.04320987654320988,0,0,0.04320987654320988,70.73456790123458,0)" xlink:href="#aE"/><use transform="matrix(0.04320987654320988,0,0,0.04320987654320988,75.05555555555557,0)" xlink:href="#aC"/><use transform="matrix(0.04320987654320988,0,0,0.04320987654320988,78.46913580246915,0)" xlink:href="#aK"/><use transform="matrix(0.04320987654320988,0,0,0.04320987654320988,87.11111111111113,0)" xlink:href="#aJ"/><use transform="matrix(0.04320987654320988,0,0,0.04320987654320988,95.7530864197531,0)" xlink:href="#aB"/></g><path fill="#333" d="M1240-945c-141 0-250 95-250 227V0H804v-709c0-157-77-236-231-236-121 0-204 52-249 155V0H139v-1082h175l5 120c79-93 186-140 321-140 151 0 254 58 309 174 69-98 181-174 345-174 237 0 362 126 362 377V0h-185v-714c-2-159-67-231-231-231" id="aU"/><g id="s"><use transform="matrix(0.0087890625,0,0,0.0087890625,0,0)" xlink:href="#ah"/><use transform="matrix(0.0087890625,0,0,0.0087890625,9.123046875,0)" xlink:href="#aU"/><use transform="matrix(0.0087890625,0,0,0.0087890625,24.8994140625,0)" xlink:href="#aH"/><use transform="matrix(0.0087890625,0,0,0.0087890625,34.1806640625,0)" xlink:href="#as"/><use transform="matrix(0.0087890625,0,0,0.0087890625,39.146484375,0)" xlink:href="#at"/><use transform="matrix(0.0087890625,0,0,0.0087890625,49.078125,0)" xlink:href="#ac"/><use transform="matrix(0.0087890625,0,0,0.0087890625,58.6142578125,0)" xlink:href="#ad"/><use transform="matrix(0.0087890625,0,0,0.0087890625,64.494140625,0)" xlink:href="#ae"/><use transform="matrix(0.0087890625,0,0,0.0087890625,78.0205078125,0)" xlink:href="#af"/><use transform="matrix(0.0087890625,0,0,0.0087890625,88.2861328125,0)" xlink:href="#ag"/><use transform="matrix(0.0087890625,0,0,0.0087890625,94.376953125,0)" xlink:href="#ah"/></g><path fill="#333" d="M210-169c-67 3-38 105-44 169h-31v-121c0-29-5-50-35-48C34-165 62-65 56 0H25l-1-190h30c1 10-1 24 2 32 10-44 99-50 107 0 11-21 27-35 58-36 85-2 47 119 55 194h-31v-121c0-29-5-49-35-48" id="aV"/><path fill="#333" d="M143 0L79-87 56-68V0H24v-261h32v163l83-92h37l-77 82L181 0h-38" id="aW"/><g id="t"><use transform="matrix(0.04320987654320988,0,0,0.04320987654320988,0,0)" xlink:href="#aE"/><use transform="matrix(0.04320987654320988,0,0,0.04320987654320988,4.320987654320988,0)" xlink:href="#aV"/><use transform="matrix(0.04320987654320988,0,0,0.04320987654320988,17.240740740740744,0)" xlink:href="#aW"/><use transform="matrix(0.04320987654320988,0,0,0.04320987654320988,25.018518518518523,0)" xlink:href="#aV"/><use transform="matrix(0.04320987654320988,0,0,0.04320987654320988,37.93827160493828,0)" xlink:href="#aI"/></g><g id="u"><use transform="matrix(0.04320987654320988,0,0,0.04320987654320988,0,0)" xlink:href="#aI"/><use transform="matrix(0.04320987654320988,0,0,0.04320987654320988,7.777777777777779,0)" xlink:href="#aJ"/><use transform="matrix(0.04320987654320988,0,0,0.04320987654320988,16.419753086419753,0)" xlink:href="#aK"/><use transform="matrix(0.04320987654320988,0,0,0.04320987654320988,25.061728395061728,0)" xlink:href="#aE"/><use transform="matrix(0.04320987654320988,0,0,0.04320987654320988,29.382716049382715,0)" xlink:href="#aC"/><use transform="matrix(0.04320987654320988,0,0,0.04320987654320988,32.7962962962963,0)" xlink:href="#aK"/><use transform="matrix(0.04320987654320988,0,0,0.04320987654320988,41.43827160493827,0)" xlink:href="#aJ"/><use transform="matrix(0.04320987654320988,0,0,0.04320987654320988,50.08024691358024,0)" xlink:href="#aB"/></g></defs></g></svg>